<?xml version="1.0" encoding="UTF-8"?>
<svg id="Layer_2" data-name="Layer 2" xmlns="http://www.w3.org/2000/svg" xmlns:xlink="http://www.w3.org/1999/xlink" viewBox="0 0 1224 792">
  <defs>

    <style>
      .cls-1 {
        clip-path: url(#clippath);
      }

      .cls-2 {
        stroke-width: 0px;
      }

      .cls-2, .cls-3 {
        fill: none;
      }

      .cls-3 {
        stroke: #fee100;
        stroke-miterlimit: 10;
        stroke-width: 1px;
      }

    </style>
    <clipPath id="clippath">
      <rect class="cls-2" x="216" y="-216" width="792" height="1224" transform="translate(1008 -216) rotate(90)"/>
    </clipPath>
  </defs>
  <g id="Layer_1-2" data-name="Layer 1">
    <g class="cls-1">
      <g>
        <g>
          <g>
            <line class="cls-3" x1="87.87" y1="-202.87" x2="87.87" y2="994.87"/>
            <line class="cls-3" x1="408.17" y1="-202.87" x2="408.17" y2="994.87"/>
            <line class="cls-3" x1="58.75" y1="-202.87" x2="58.75" y2="994.87"/>
            <line class="cls-3" x1="379.05" y1="-202.87" x2="379.05" y2="994.87"/>
            <line class="cls-3" x1="29.64" y1="-202.87" x2="29.64" y2="994.87"/>
            <line class="cls-3" x1="349.94" y1="-202.87" x2="349.94" y2="994.87"/>
            <line class="cls-3" x1="15.08" y1="-202.87" x2="15.08" y2="994.87"/>
            <line class="cls-3" x1="320.82" y1="-202.87" x2="320.82" y2="994.87"/>
            <line class="cls-3" x1=".52" y1="-202.87" x2=".52" y2="994.87"/>
            <line class="cls-3" x1="291.7" y1="-202.87" x2="291.7" y2="994.87"/>
            <line class="cls-3" x1="262.58" y1="-202.87" x2="262.58" y2="994.87"/>
            <line class="cls-3" x1="233.46" y1="-202.87" x2="233.46" y2="994.87"/>
            <line class="cls-3" x1="204.35" y1="-202.87" x2="204.35" y2="994.87"/>
            <line class="cls-3" x1="175.23" y1="-202.87" x2="175.23" y2="994.87"/>
            <line class="cls-3" x1="146.11" y1="-202.87" x2="146.11" y2="994.87"/>
            <line class="cls-3" x1="116.99" y1="-202.87" x2="116.99" y2="994.87"/>
            <line class="cls-3" x1="437.29" y1="-202.87" x2="437.29" y2="994.87"/>
            <line class="cls-3" x1="44.2" y1="-202.87" x2="44.2" y2="994.87"/>
            <line class="cls-3" x1="73.31" y1="-202.87" x2="73.31" y2="994.87"/>
            <line class="cls-3" x1="422.73" y1="-202.87" x2="422.73" y2="994.87"/>
            <line class="cls-3" x1="597.44" y1="-202.87" x2="597.44" y2="994.87"/>
            <line class="cls-3" x1="393.61" y1="-202.87" x2="393.61" y2="994.87"/>
            <line class="cls-3" x1="582.88" y1="-202.87" x2="582.88" y2="994.87"/>
            <line class="cls-3" x1="364.5" y1="-202.87" x2="364.5" y2="994.87"/>
            <line class="cls-3" x1="568.32" y1="-202.87" x2="568.32" y2="994.87"/>
            <line class="cls-3" x1="335.38" y1="-202.87" x2="335.38" y2="994.87"/>
            <line class="cls-3" x1="553.76" y1="-202.87" x2="553.76" y2="994.87"/>
            <line class="cls-3" x1="306.26" y1="-202.87" x2="306.26" y2="994.87"/>
            <line class="cls-3" x1="539.2" y1="-202.87" x2="539.2" y2="994.87"/>
            <line class="cls-3" x1="277.14" y1="-202.87" x2="277.14" y2="994.87"/>
            <line class="cls-3" x1="524.65" y1="-202.87" x2="524.65" y2="994.87"/>
            <line class="cls-3" x1="248.02" y1="-202.87" x2="248.02" y2="994.87"/>
            <line class="cls-3" x1="510.09" y1="-202.87" x2="510.09" y2="994.87"/>
            <line class="cls-3" x1="218.9" y1="-202.87" x2="218.9" y2="994.87"/>
            <line class="cls-3" x1="495.53" y1="-202.87" x2="495.53" y2="994.87"/>
            <line class="cls-3" x1="189.79" y1="-202.87" x2="189.79" y2="994.87"/>
            <line class="cls-3" x1="480.97" y1="-202.87" x2="480.97" y2="994.87"/>
            <line class="cls-3" x1="160.67" y1="-202.87" x2="160.67" y2="994.87"/>
            <line class="cls-3" x1="466.41" y1="-202.87" x2="466.41" y2="994.87"/>
            <line class="cls-3" x1="131.55" y1="-202.87" x2="131.55" y2="994.87"/>
            <line class="cls-3" x1="451.85" y1="-202.87" x2="451.85" y2="994.87"/>
            <line class="cls-3" x1="102.43" y1="-202.87" x2="102.43" y2="994.87"/>
            <line class="cls-3" x1="612" y1="-202.87" x2="612" y2="994.87"/>
          </g>
          <line class="cls-3" x1="626.56" y1="-202.87" x2="626.56" y2="994.87"/>
          <line class="cls-3" x1="830.39" y1="-202.87" x2="830.39" y2="994.87"/>
          <line class="cls-3" x1="1150.69" y1="-202.87" x2="1150.69" y2="994.87"/>
          <line class="cls-3" x1="801.27" y1="-202.87" x2="801.27" y2="994.87"/>
          <line class="cls-3" x1="1121.57" y1="-202.87" x2="1121.57" y2="994.87"/>
          <line class="cls-3" x1="772.15" y1="-202.87" x2="772.15" y2="994.87"/>
          <line class="cls-3" x1="1092.45" y1="-202.87" x2="1092.45" y2="994.87"/>
          <line class="cls-3" x1="757.59" y1="-202.87" x2="757.59" y2="994.87"/>
          <line class="cls-3" x1="1063.33" y1="-202.87" x2="1063.33" y2="994.87"/>
          <line class="cls-3" x1="743.03" y1="-202.87" x2="743.03" y2="994.87"/>
          <line class="cls-3" x1="1034.21" y1="-202.87" x2="1034.21" y2="994.87"/>
          <line class="cls-3" x1="728.47" y1="-202.87" x2="728.47" y2="994.87"/>
          <line class="cls-3" x1="1005.1" y1="-202.87" x2="1005.1" y2="994.87"/>
          <line class="cls-3" x1="713.91" y1="-202.87" x2="713.91" y2="994.87"/>
          <line class="cls-3" x1="975.98" y1="-202.87" x2="975.98" y2="994.87"/>
          <line class="cls-3" x1="699.35" y1="-202.87" x2="699.35" y2="994.87"/>
          <line class="cls-3" x1="946.86" y1="-202.87" x2="946.86" y2="994.87"/>
          <line class="cls-3" x1="684.8" y1="-202.87" x2="684.8" y2="994.87"/>
          <line class="cls-3" x1="917.74" y1="-202.87" x2="917.74" y2="994.87"/>
          <line class="cls-3" x1="670.24" y1="-202.87" x2="670.24" y2="994.87"/>
          <line class="cls-3" x1="888.62" y1="-202.87" x2="888.62" y2="994.87"/>
          <line class="cls-3" x1="655.68" y1="-202.87" x2="655.68" y2="994.87"/>
          <line class="cls-3" x1="859.5" y1="-202.87" x2="859.5" y2="994.87"/>
          <line class="cls-3" x1="641.12" y1="-202.87" x2="641.12" y2="994.87"/>
          <line class="cls-3" x1="1179.8" y1="-202.87" x2="1179.8" y2="994.87"/>
          <line class="cls-3" x1="786.71" y1="-202.87" x2="786.71" y2="994.87"/>
          <line class="cls-3" x1="815.83" y1="-202.87" x2="815.83" y2="994.87"/>
          <line class="cls-3" x1="1165.25" y1="-202.87" x2="1165.25" y2="994.87"/>
          <line class="cls-3" x1="1136.13" y1="-202.87" x2="1136.13" y2="994.87"/>
          <line class="cls-3" x1="1107.01" y1="-202.87" x2="1107.01" y2="994.87"/>
          <line class="cls-3" x1="1077.89" y1="-202.87" x2="1077.89" y2="994.87"/>
          <line class="cls-3" x1="1048.77" y1="-202.87" x2="1048.77" y2="994.87"/>
          <line class="cls-3" x1="1019.65" y1="-202.87" x2="1019.65" y2="994.87"/>
          <line class="cls-3" x1="990.54" y1="-202.87" x2="990.54" y2="994.87"/>
          <line class="cls-3" x1="961.42" y1="-202.87" x2="961.42" y2="994.87"/>
          <line class="cls-3" x1="932.3" y1="-202.87" x2="932.3" y2="994.87"/>
          <line class="cls-3" x1="1223.48" y1="-202.87" x2="1223.48" y2="994.87"/>
          <line class="cls-3" x1="903.18" y1="-202.87" x2="903.18" y2="994.87"/>
          <line class="cls-3" x1="1208.92" y1="-202.87" x2="1208.92" y2="994.87"/>
          <line class="cls-3" x1="874.06" y1="-202.87" x2="874.06" y2="994.87"/>
          <line class="cls-3" x1="1194.36" y1="-202.87" x2="1194.36" y2="994.87"/>
          <line class="cls-3" x1="844.95" y1="-202.87" x2="844.95" y2="994.87"/>
        </g>
        <g>
          <g>
            <line class="cls-3" x1="1611.12" y1="192.17" x2="-387.12" y2="192.17"/>
            <line class="cls-3" x1="1611.12" y1="163.05" x2="-387.12" y2="163.05"/>
            <line class="cls-3" x1="1611.12" y1="133.94" x2="-387.12" y2="133.94"/>
            <line class="cls-3" x1="1611.12" y1="104.82" x2="-387.12" y2="104.82"/>
            <line class="cls-3" x1="1611.12" y1="75.7" x2="-387.12" y2="75.7"/>
            <line class="cls-3" x1="1611.12" y1="46.58" x2="-387.12" y2="46.58"/>
            <line class="cls-3" x1="1611.12" y1="17.46" x2="-387.12" y2="17.46"/>
            <line class="cls-3" x1="1611.12" y1="221.29" x2="-387.12" y2="221.29"/>
            <line class="cls-3" x1="1611.12" y1="206.73" x2="-387.12" y2="206.73"/>
            <line class="cls-3" x1="1611.12" y1="381.44" x2="-387.12" y2="381.44"/>
            <line class="cls-3" x1="1611.12" y1="177.61" x2="-387.12" y2="177.61"/>
            <line class="cls-3" x1="1611.12" y1="366.88" x2="-387.12" y2="366.88"/>
            <line class="cls-3" x1="1611.12" y1="148.5" x2="-387.12" y2="148.5"/>
            <line class="cls-3" x1="1611.12" y1="352.32" x2="-387.12" y2="352.32"/>
            <line class="cls-3" x1="1611.12" y1="119.38" x2="-387.12" y2="119.38"/>
            <line class="cls-3" x1="1611.12" y1="337.76" x2="-387.12" y2="337.76"/>
            <line class="cls-3" x1="1611.12" y1="90.26" x2="-387.12" y2="90.26"/>
            <line class="cls-3" x1="1611.12" y1="323.2" x2="-387.12" y2="323.2"/>
            <line class="cls-3" x1="1611.12" y1="61.14" x2="-387.12" y2="61.14"/>
            <line class="cls-3" x1="1611.12" y1="308.65" x2="-387.12" y2="308.65"/>
            <line class="cls-3" x1="1611.12" y1="32.02" x2="-387.12" y2="32.02"/>
            <line class="cls-3" x1="1611.12" y1="294.09" x2="-387.12" y2="294.09"/>
            <line class="cls-3" x1="1611.12" y1="2.9" x2="-387.12" y2="2.9"/>
            <line class="cls-3" x1="1611.12" y1="279.53" x2="-387.12" y2="279.53"/>
            <line class="cls-3" x1="1611.12" y1="264.97" x2="-387.12" y2="264.97"/>
            <line class="cls-3" x1="1611.12" y1="250.41" x2="-387.12" y2="250.41"/>
            <line class="cls-3" x1="1611.12" y1="235.85" x2="-387.12" y2="235.85"/>
            <line class="cls-3" x1="1611.12" y1="396" x2="-387.12" y2="396"/>
          </g>
          <line class="cls-3" x1="1611.12" y1="410.56" x2="-387.12" y2="410.56"/>
          <line class="cls-3" x1="1611.12" y1="614.39" x2="-387.12" y2="614.39"/>
          <line class="cls-3" x1="1611.12" y1="585.27" x2="-387.12" y2="585.27"/>
          <line class="cls-3" x1="1611.12" y1="556.15" x2="-387.12" y2="556.15"/>
          <line class="cls-3" x1="1611.12" y1="541.59" x2="-387.12" y2="541.59"/>
          <line class="cls-3" x1="1611.12" y1="527.03" x2="-387.12" y2="527.03"/>
          <line class="cls-3" x1="1611.12" y1="512.47" x2="-387.12" y2="512.47"/>
          <line class="cls-3" x1="1611.12" y1="789.1" x2="-387.12" y2="789.1"/>
          <line class="cls-3" x1="1611.12" y1="497.91" x2="-387.12" y2="497.91"/>
          <line class="cls-3" x1="1611.12" y1="759.98" x2="-387.12" y2="759.98"/>
          <line class="cls-3" x1="1611.12" y1="483.35" x2="-387.12" y2="483.35"/>
          <line class="cls-3" x1="1611.12" y1="730.86" x2="-387.12" y2="730.86"/>
          <line class="cls-3" x1="1611.12" y1="468.8" x2="-387.12" y2="468.8"/>
          <line class="cls-3" x1="1611.12" y1="701.74" x2="-387.12" y2="701.74"/>
          <line class="cls-3" x1="1611.12" y1="454.24" x2="-387.12" y2="454.24"/>
          <line class="cls-3" x1="1611.12" y1="672.62" x2="-387.12" y2="672.62"/>
          <line class="cls-3" x1="1611.12" y1="439.68" x2="-387.12" y2="439.68"/>
          <line class="cls-3" x1="1611.12" y1="643.5" x2="-387.12" y2="643.5"/>
          <line class="cls-3" x1="1611.12" y1="425.12" x2="-387.12" y2="425.12"/>
          <line class="cls-3" x1="1611.12" y1="570.71" x2="-387.12" y2="570.71"/>
          <line class="cls-3" x1="1611.12" y1="599.83" x2="-387.12" y2="599.83"/>
          <line class="cls-3" x1="1611.12" y1="774.54" x2="-387.12" y2="774.54"/>
          <line class="cls-3" x1="1611.12" y1="745.42" x2="-387.12" y2="745.42"/>
          <line class="cls-3" x1="1611.12" y1="716.3" x2="-387.12" y2="716.3"/>
          <line class="cls-3" x1="1611.12" y1="687.18" x2="-387.12" y2="687.18"/>
          <line class="cls-3" x1="1611.12" y1="658.06" x2="-387.12" y2="658.06"/>
          <line class="cls-3" x1="1611.12" y1="628.95" x2="-387.12" y2="628.95"/>
        </g>
      </g>
    </g>
  </g>
</svg>